<mxfile host="app.diagrams.net" agent="Mozilla/5.0 (X11; Linux x86_64; rv:130.0) Gecko/20100101 Firefox/130.0" version="26.2.9">
  <diagram id="C5RBs43oDa-KdzZeNtuy" name="Page-1">
    <mxGraphModel dx="2367" dy="888" grid="1" gridSize="10" guides="1" tooltips="1" connect="1" arrows="1" fold="1" page="1" pageScale="1" pageWidth="827" pageHeight="1169" math="0" shadow="0">
      <root>
        <mxCell id="WIyWlLk6GJQsqaUBKTNV-0" />
        <mxCell id="WIyWlLk6GJQsqaUBKTNV-1" parent="WIyWlLk6GJQsqaUBKTNV-0" />
        <mxCell id="ygqNbXXuO46wxGrCDqbf-1" value="&lt;h1 style=&quot;margin-top: 0px;&quot;&gt;TREINO DE DIAGRAMA&lt;br&gt;&lt;/h1&gt;&lt;p&gt;o objetivo aqui é criar um diagrama para resolver alguns aspectos de um projeto baseado em PSEUDO código como forma de treinar o raciocínio e aprender a arquitetar projetos com começo meio e fim.&lt;br&gt;&lt;/p&gt;" style="text;html=1;whiteSpace=wrap;overflow=hidden;rounded=0;" vertex="1" parent="WIyWlLk6GJQsqaUBKTNV-1">
          <mxGeometry x="640" y="30" width="180" height="220" as="geometry" />
        </mxCell>
        <mxCell id="ygqNbXXuO46wxGrCDqbf-4" value="main.py" style="shape=note;whiteSpace=wrap;html=1;backgroundOutline=1;darkOpacity=0.05;" vertex="1" parent="WIyWlLk6GJQsqaUBKTNV-1">
          <mxGeometry x="20" y="10" width="80" height="100" as="geometry" />
        </mxCell>
        <mxCell id="ygqNbXXuO46wxGrCDqbf-5" value="scrapper.py" style="shape=note;whiteSpace=wrap;html=1;backgroundOutline=1;darkOpacity=0.05;" vertex="1" parent="WIyWlLk6GJQsqaUBKTNV-1">
          <mxGeometry x="20" y="140" width="80" height="100" as="geometry" />
        </mxCell>
        <mxCell id="ygqNbXXuO46wxGrCDqbf-6" value="database.py" style="shape=note;whiteSpace=wrap;html=1;backgroundOutline=1;darkOpacity=0.05;" vertex="1" parent="WIyWlLk6GJQsqaUBKTNV-1">
          <mxGeometry x="20" y="270" width="80" height="100" as="geometry" />
        </mxCell>
        <mxCell id="ygqNbXXuO46wxGrCDqbf-7" value="&lt;h1 style=&quot;margin-top: 0px;&quot;&gt;main.py&lt;/h1&gt;&lt;p&gt;responsável por armazenar e orquestrar as chamadas e atividades com os arquivos abaixos referentes&lt;br&gt;&lt;/p&gt;" style="text;html=1;whiteSpace=wrap;overflow=hidden;rounded=0;" vertex="1" parent="WIyWlLk6GJQsqaUBKTNV-1">
          <mxGeometry x="120" y="20" width="180" height="120" as="geometry" />
        </mxCell>
        <mxCell id="ygqNbXXuO46wxGrCDqbf-8" value="&lt;h1 style=&quot;margin-top: 0px;&quot;&gt;scrapper.py&lt;/h1&gt;&lt;p&gt;responsável pela busca e extração de dados dentro de um website específico, retornando os dados de forma padronizada e funcional.&lt;br&gt;&lt;/p&gt;" style="text;html=1;whiteSpace=wrap;overflow=hidden;rounded=0;" vertex="1" parent="WIyWlLk6GJQsqaUBKTNV-1">
          <mxGeometry x="120" y="150" width="180" height="120" as="geometry" />
        </mxCell>
        <mxCell id="ygqNbXXuO46wxGrCDqbf-9" value="&lt;h1 style=&quot;margin-top: 0px;&quot;&gt;database.py&lt;/h1&gt;&lt;div&gt;responsável pela busca, armazenamento e recuperação de dados dentro do banco de dados&lt;/div&gt;&lt;div&gt;&lt;br&gt;&lt;/div&gt;" style="text;html=1;whiteSpace=wrap;overflow=hidden;rounded=0;" vertex="1" parent="WIyWlLk6GJQsqaUBKTNV-1">
          <mxGeometry x="120" y="280" width="180" height="120" as="geometry" />
        </mxCell>
        <mxCell id="ygqNbXXuO46wxGrCDqbf-10" value="security.py" style="shape=note;whiteSpace=wrap;html=1;backgroundOutline=1;darkOpacity=0.05;" vertex="1" parent="WIyWlLk6GJQsqaUBKTNV-1">
          <mxGeometry x="334" y="10" width="80" height="100" as="geometry" />
        </mxCell>
        <mxCell id="ygqNbXXuO46wxGrCDqbf-11" value="&lt;h1 style=&quot;margin-top: 0px;&quot;&gt;security.py&lt;/h1&gt;&lt;p&gt;responsável por garantir a integridade do código, backup de software, recontrução de banco de dados e configurações.&lt;br&gt;&lt;/p&gt;" style="text;html=1;whiteSpace=wrap;overflow=hidden;rounded=0;" vertex="1" parent="WIyWlLk6GJQsqaUBKTNV-1">
          <mxGeometry x="430" y="20" width="180" height="120" as="geometry" />
        </mxCell>
        <mxCell id="ygqNbXXuO46wxGrCDqbf-12" value="syttings.json" style="shape=note;whiteSpace=wrap;html=1;backgroundOutline=1;darkOpacity=0.05;" vertex="1" parent="WIyWlLk6GJQsqaUBKTNV-1">
          <mxGeometry x="334" y="140" width="80" height="100" as="geometry" />
        </mxCell>
        <mxCell id="ygqNbXXuO46wxGrCDqbf-13" value="&lt;h1 style=&quot;margin-top: 0px;&quot;&gt;syttings.json&lt;/h1&gt;&lt;p&gt;responsável pelos dados de configurações e variáveis &quot;estáticas&quot; do software&lt;br&gt;&lt;/p&gt;" style="text;html=1;whiteSpace=wrap;overflow=hidden;rounded=0;" vertex="1" parent="WIyWlLk6GJQsqaUBKTNV-1">
          <mxGeometry x="430" y="150" width="210" height="120" as="geometry" />
        </mxCell>
        <mxCell id="ygqNbXXuO46wxGrCDqbf-14" value="O projeto consiste em localizar, buscar, raspar, unificar e retornar animes e informações dos mesmo em um único lugar, providênciando fontes de dados de um grau de segurança, também permitindo a busca de animes que tenham certa dificuldades para serem encontrados." style="text;html=1;align=center;verticalAlign=middle;whiteSpace=wrap;rounded=0;" vertex="1" parent="WIyWlLk6GJQsqaUBKTNV-1">
          <mxGeometry x="390" y="270" width="320" height="70" as="geometry" />
        </mxCell>
        <mxCell id="ygqNbXXuO46wxGrCDqbf-16" value="&lt;div&gt;O principal objetivo é construir uma API completa e segura,&amp;nbsp;&lt;/div&gt;&lt;div&gt;seguindo as regras de segurança&amp;nbsp; e estratégias para poder prover&amp;nbsp; um ambiente seugro,&amp;nbsp;&lt;/div&gt;&lt;div&gt;além de desenvolver um sistema de scrapping de alta performance e qualidade!&lt;br&gt;&lt;/div&gt;" style="text;html=1;align=center;verticalAlign=middle;resizable=0;points=[];autosize=1;strokeColor=none;fillColor=none;" vertex="1" parent="WIyWlLk6GJQsqaUBKTNV-1">
          <mxGeometry x="300" y="355" width="500" height="60" as="geometry" />
        </mxCell>
        <mxCell id="ygqNbXXuO46wxGrCDqbf-18" value="mídias de animes" style="swimlane;fontStyle=0;childLayout=stackLayout;horizontal=1;startSize=30;horizontalStack=0;resizeParent=1;resizeParentMax=0;resizeLast=0;collapsible=1;marginBottom=0;whiteSpace=wrap;html=1;" vertex="1" parent="WIyWlLk6GJQsqaUBKTNV-1">
          <mxGeometry x="320" y="440" width="170" height="240" as="geometry" />
        </mxCell>
        <mxCell id="ygqNbXXuO46wxGrCDqbf-19" value="https://because.moe/" style="text;strokeColor=none;fillColor=none;align=left;verticalAlign=middle;spacingLeft=4;spacingRight=4;overflow=hidden;points=[[0,0.5],[1,0.5]];portConstraint=eastwest;rotatable=0;whiteSpace=wrap;html=1;" vertex="1" parent="ygqNbXXuO46wxGrCDqbf-18">
          <mxGeometry y="30" width="170" height="30" as="geometry" />
        </mxCell>
        <mxCell id="ygqNbXXuO46wxGrCDqbf-20" value="https://animefire.plus/" style="text;strokeColor=none;fillColor=none;align=left;verticalAlign=middle;spacingLeft=4;spacingRight=4;overflow=hidden;points=[[0,0.5],[1,0.5]];portConstraint=eastwest;rotatable=0;whiteSpace=wrap;html=1;" vertex="1" parent="ygqNbXXuO46wxGrCDqbf-18">
          <mxGeometry y="60" width="170" height="30" as="geometry" />
        </mxCell>
        <mxCell id="ygqNbXXuO46wxGrCDqbf-21" value="&lt;div&gt;https://goyabu.to/&lt;/div&gt;" style="text;strokeColor=none;fillColor=none;align=left;verticalAlign=middle;spacingLeft=4;spacingRight=4;overflow=hidden;points=[[0,0.5],[1,0.5]];portConstraint=eastwest;rotatable=0;whiteSpace=wrap;html=1;" vertex="1" parent="ygqNbXXuO46wxGrCDqbf-18">
          <mxGeometry y="90" width="170" height="30" as="geometry" />
        </mxCell>
        <UserObject label="https://kissanime.com.ru/" link="https://kissanime.com.ru/kissanime-home.html" id="ygqNbXXuO46wxGrCDqbf-24">
          <mxCell style="text;strokeColor=none;fillColor=none;align=left;verticalAlign=middle;spacingLeft=4;spacingRight=4;overflow=hidden;points=[[0,0.5],[1,0.5]];portConstraint=eastwest;rotatable=0;whiteSpace=wrap;html=1;" vertex="1" parent="ygqNbXXuO46wxGrCDqbf-18">
            <mxGeometry y="120" width="170" height="30" as="geometry" />
          </mxCell>
        </UserObject>
        <UserObject label="https://animesbr.tv/" link="https://animesbr.tv/" id="ygqNbXXuO46wxGrCDqbf-23">
          <mxCell style="text;strokeColor=none;fillColor=none;align=left;verticalAlign=middle;spacingLeft=4;spacingRight=4;overflow=hidden;points=[[0,0.5],[1,0.5]];portConstraint=eastwest;rotatable=0;whiteSpace=wrap;html=1;" vertex="1" parent="ygqNbXXuO46wxGrCDqbf-18">
            <mxGeometry y="150" width="170" height="30" as="geometry" />
          </mxCell>
        </UserObject>
        <UserObject label="https://aniwatchtv.to/" link="https://aniwatchtv.to/" id="ygqNbXXuO46wxGrCDqbf-25">
          <mxCell style="text;strokeColor=none;fillColor=none;align=left;verticalAlign=middle;spacingLeft=4;spacingRight=4;overflow=hidden;points=[[0,0.5],[1,0.5]];portConstraint=eastwest;rotatable=0;whiteSpace=wrap;html=1;" vertex="1" parent="ygqNbXXuO46wxGrCDqbf-18">
            <mxGeometry y="180" width="170" height="30" as="geometry" />
          </mxCell>
        </UserObject>
        <UserObject label="https://9animetv.to/" link="https://9animetv.to/" id="ygqNbXXuO46wxGrCDqbf-26">
          <mxCell style="text;strokeColor=none;fillColor=none;align=left;verticalAlign=middle;spacingLeft=4;spacingRight=4;overflow=hidden;points=[[0,0.5],[1,0.5]];portConstraint=eastwest;rotatable=0;whiteSpace=wrap;html=1;" vertex="1" parent="ygqNbXXuO46wxGrCDqbf-18">
            <mxGeometry y="210" width="170" height="30" as="geometry" />
          </mxCell>
        </UserObject>
        <mxCell id="ygqNbXXuO46wxGrCDqbf-27" value="informações de animes" style="swimlane;fontStyle=0;childLayout=stackLayout;horizontal=1;startSize=30;horizontalStack=0;resizeParent=1;resizeParentMax=0;resizeLast=0;collapsible=1;marginBottom=0;whiteSpace=wrap;html=1;" vertex="1" parent="WIyWlLk6GJQsqaUBKTNV-1">
          <mxGeometry x="560" y="440" width="210" height="240" as="geometry" />
        </mxCell>
        <UserObject label="https://myanimelist.net/" link="https://myanimelist.net/" id="ygqNbXXuO46wxGrCDqbf-28">
          <mxCell style="text;strokeColor=none;fillColor=none;align=left;verticalAlign=middle;spacingLeft=4;spacingRight=4;overflow=hidden;points=[[0,0.5],[1,0.5]];portConstraint=eastwest;rotatable=0;whiteSpace=wrap;html=1;" vertex="1" parent="ygqNbXXuO46wxGrCDqbf-27">
            <mxGeometry y="30" width="210" height="30" as="geometry" />
          </mxCell>
        </UserObject>
        <UserObject label="https://anidb.net/" link="https://anidb.net/" id="ygqNbXXuO46wxGrCDqbf-29">
          <mxCell style="text;strokeColor=none;fillColor=none;align=left;verticalAlign=middle;spacingLeft=4;spacingRight=4;overflow=hidden;points=[[0,0.5],[1,0.5]];portConstraint=eastwest;rotatable=0;whiteSpace=wrap;html=1;" vertex="1" parent="ygqNbXXuO46wxGrCDqbf-27">
            <mxGeometry y="60" width="210" height="30" as="geometry" />
          </mxCell>
        </UserObject>
        <UserObject label="https://anilist.co/" link="https://anilist.co/" id="ygqNbXXuO46wxGrCDqbf-40">
          <mxCell style="text;strokeColor=none;fillColor=none;align=left;verticalAlign=middle;spacingLeft=4;spacingRight=4;overflow=hidden;points=[[0,0.5],[1,0.5]];portConstraint=eastwest;rotatable=0;whiteSpace=wrap;html=1;" vertex="1" parent="ygqNbXXuO46wxGrCDqbf-27">
            <mxGeometry y="90" width="210" height="30" as="geometry" />
          </mxCell>
        </UserObject>
        <UserObject label="https://kitsu.app/" link="https://kitsu.app/explore/anime" id="ygqNbXXuO46wxGrCDqbf-39">
          <mxCell style="text;strokeColor=none;fillColor=none;align=left;verticalAlign=middle;spacingLeft=4;spacingRight=4;overflow=hidden;points=[[0,0.5],[1,0.5]];portConstraint=eastwest;rotatable=0;whiteSpace=wrap;html=1;" vertex="1" parent="ygqNbXXuO46wxGrCDqbf-27">
            <mxGeometry y="120" width="210" height="30" as="geometry" />
          </mxCell>
        </UserObject>
        <UserObject label="https://www.anime-planet.com/" link="https://www.anime-planet.com/" id="ygqNbXXuO46wxGrCDqbf-38">
          <mxCell style="text;strokeColor=none;fillColor=none;align=left;verticalAlign=middle;spacingLeft=4;spacingRight=4;overflow=hidden;points=[[0,0.5],[1,0.5]];portConstraint=eastwest;rotatable=0;whiteSpace=wrap;html=1;" vertex="1" parent="ygqNbXXuO46wxGrCDqbf-27">
            <mxGeometry y="150" width="210" height="30" as="geometry" />
          </mxCell>
        </UserObject>
        <UserObject label="https://www.livechart.me/" link="https://www.livechart.me/" id="ygqNbXXuO46wxGrCDqbf-37">
          <mxCell style="text;strokeColor=none;fillColor=none;align=left;verticalAlign=middle;spacingLeft=4;spacingRight=4;overflow=hidden;points=[[0,0.5],[1,0.5]];portConstraint=eastwest;rotatable=0;whiteSpace=wrap;html=1;" vertex="1" parent="ygqNbXXuO46wxGrCDqbf-27">
            <mxGeometry y="180" width="210" height="30" as="geometry" />
          </mxCell>
        </UserObject>
        <UserObject label="https://animeschedule.net/" link="https://animeschedule.net/" id="ygqNbXXuO46wxGrCDqbf-36">
          <mxCell style="text;strokeColor=none;fillColor=none;align=left;verticalAlign=middle;spacingLeft=4;spacingRight=4;overflow=hidden;points=[[0,0.5],[1,0.5]];portConstraint=eastwest;rotatable=0;whiteSpace=wrap;html=1;" vertex="1" parent="ygqNbXXuO46wxGrCDqbf-27">
            <mxGeometry y="210" width="210" height="30" as="geometry" />
          </mxCell>
        </UserObject>
        <mxCell id="ygqNbXXuO46wxGrCDqbf-41" value="&lt;div&gt;o que deve prover&lt;/div&gt;" style="swimlane;fontStyle=0;childLayout=stackLayout;horizontal=1;startSize=30;horizontalStack=0;resizeParent=1;resizeParentMax=0;resizeLast=0;collapsible=1;marginBottom=0;whiteSpace=wrap;html=1;" vertex="1" parent="WIyWlLk6GJQsqaUBKTNV-1">
          <mxGeometry x="40" y="440" width="200" height="240" as="geometry" />
        </mxCell>
        <mxCell id="ygqNbXXuO46wxGrCDqbf-42" value="busca de animes" style="text;strokeColor=none;fillColor=none;align=left;verticalAlign=middle;spacingLeft=4;spacingRight=4;overflow=hidden;points=[[0,0.5],[1,0.5]];portConstraint=eastwest;rotatable=0;whiteSpace=wrap;html=1;" vertex="1" parent="ygqNbXXuO46wxGrCDqbf-41">
          <mxGeometry y="30" width="200" height="30" as="geometry" />
        </mxCell>
        <mxCell id="ygqNbXXuO46wxGrCDqbf-43" value="link de reprodução" style="text;strokeColor=none;fillColor=none;align=left;verticalAlign=middle;spacingLeft=4;spacingRight=4;overflow=hidden;points=[[0,0.5],[1,0.5]];portConstraint=eastwest;rotatable=0;whiteSpace=wrap;html=1;" vertex="1" parent="ygqNbXXuO46wxGrCDqbf-41">
          <mxGeometry y="60" width="200" height="30" as="geometry" />
        </mxCell>
        <mxCell id="ygqNbXXuO46wxGrCDqbf-44" value="informações simplificadas" style="text;strokeColor=none;fillColor=none;align=left;verticalAlign=middle;spacingLeft=4;spacingRight=4;overflow=hidden;points=[[0,0.5],[1,0.5]];portConstraint=eastwest;rotatable=0;whiteSpace=wrap;html=1;" vertex="1" parent="ygqNbXXuO46wxGrCDqbf-41">
          <mxGeometry y="90" width="200" height="30" as="geometry" />
        </mxCell>
        <mxCell id="ygqNbXXuO46wxGrCDqbf-49" value="&lt;div&gt;informações complexas&lt;/div&gt;" style="text;strokeColor=none;fillColor=none;align=left;verticalAlign=middle;spacingLeft=4;spacingRight=4;overflow=hidden;points=[[0,0.5],[1,0.5]];portConstraint=eastwest;rotatable=0;whiteSpace=wrap;html=1;" vertex="1" parent="ygqNbXXuO46wxGrCDqbf-41">
          <mxGeometry y="120" width="200" height="30" as="geometry" />
        </mxCell>
        <mxCell id="ygqNbXXuO46wxGrCDqbf-48" value="informações completa e profunda" style="text;strokeColor=none;fillColor=none;align=left;verticalAlign=middle;spacingLeft=4;spacingRight=4;overflow=hidden;points=[[0,0.5],[1,0.5]];portConstraint=eastwest;rotatable=0;whiteSpace=wrap;html=1;" vertex="1" parent="ygqNbXXuO46wxGrCDqbf-41">
          <mxGeometry y="150" width="200" height="30" as="geometry" />
        </mxCell>
        <mxCell id="ygqNbXXuO46wxGrCDqbf-47" value="novos animes e lançamentos" style="text;strokeColor=none;fillColor=none;align=left;verticalAlign=middle;spacingLeft=4;spacingRight=4;overflow=hidden;points=[[0,0.5],[1,0.5]];portConstraint=eastwest;rotatable=0;whiteSpace=wrap;html=1;" vertex="1" parent="ygqNbXXuO46wxGrCDqbf-41">
          <mxGeometry y="180" width="200" height="30" as="geometry" />
        </mxCell>
        <mxCell id="ygqNbXXuO46wxGrCDqbf-50" value="sistema de alerta mensal via gmail de novos animes " style="text;strokeColor=none;fillColor=none;align=left;verticalAlign=middle;spacingLeft=4;spacingRight=4;overflow=hidden;points=[[0,0.5],[1,0.5]];portConstraint=eastwest;rotatable=0;whiteSpace=wrap;html=1;" vertex="1" parent="ygqNbXXuO46wxGrCDqbf-41">
          <mxGeometry y="210" width="200" height="30" as="geometry" />
        </mxCell>
        <mxCell id="ygqNbXXuO46wxGrCDqbf-53" value="&lt;div&gt;INÍCIO&lt;/div&gt;&lt;div&gt;DIA 09 DE ABRIL, 2025&lt;br&gt;&lt;/div&gt;&lt;div&gt;03:00 AM&lt;br&gt;&lt;/div&gt;" style="text;html=1;align=center;verticalAlign=middle;resizable=0;points=[];autosize=1;strokeColor=none;fillColor=none;" vertex="1" parent="WIyWlLk6GJQsqaUBKTNV-1">
          <mxGeometry x="677" y="220" width="150" height="60" as="geometry" />
        </mxCell>
      </root>
    </mxGraphModel>
  </diagram>
</mxfile>
